<?xml version="1.0" encoding="UTF-8" standalone="no"?>
<!DOCTYPE svg PUBLIC "-//W3C//DTD SVG 1.1//EN"
 "http://www.w3.org/Graphics/SVG/1.1/DTD/svg11.dtd">
<!-- Generated by graphviz version 2.38.0 (20140413.2041)
 -->
<!-- Title: G Pages: 1 -->
<svg width="3515pt" height="474pt"
 viewBox="0.00 0.00 3515.00 474.40" xmlns="http://www.w3.org/2000/svg" xmlns:xlink="http://www.w3.org/1999/xlink">
<g id="graph0" class="graph" transform="scale(1 1) rotate(0) translate(4 470.4)">
<title>G</title>
<polygon fill="white" stroke="none" points="-4,4 -4,-470.4 3511,-470.4 3511,4 -4,4"/>
<g id="clust1" class="cluster"><title>cluster_0</title>
<polygon fill="lightgray" stroke="lightgrey" points="1507,-91.4 1507,-361.4 3499,-361.4 3499,-91.4 1507,-91.4"/>
<text text-anchor="middle" x="2234.43" y="-330.4" font-family="Times,serif" font-size="30.00">C:/Users/Diego/Desktop/COLEGIOS&#45;FACULDADES&#45;2017/IMPACTA/GAMES/GAME&#45;HTML&#45;5&#45;RPG&#45;TOP/game.js</text>
</g>
<g id="clust2" class="cluster"><title>cluster_1</title>
<polygon fill="lightgray" stroke="lightgrey" points="8,-8 8,-458.4 1499,-458.4 1499,-8 8,-8"/>
<text text-anchor="middle" x="753.78" y="-427.4" font-family="Times,serif" font-size="30.00">C:/Users/Diego/Desktop/COLEGIOS&#45;FACULDADES&#45;2017/IMPACTA/GAMES/GAME&#45;HTML&#45;5&#45;RPG&#45;TOP/index.html</text>
</g>
<!-- 0 -->
<g id="node1" class="node"><title>0</title>
<polygon fill="lightyellow" stroke="black" points="3304.6,-150.5 3304.6,-308.9 3491.4,-308.9 3491.4,-150.5 3304.6,-150.5"/>
<text text-anchor="middle" x="3398" y="-292.3" font-family="Times,serif" font-size="14.00">«GLOBAL»</text>
<polyline fill="none" stroke="black" points="3304.6,-284.1 3491.4,-284.1 "/>
<text text-anchor="start" x="3312.6" y="-267.5" font-family="Times,serif" font-size="14.00">&#45;bgImage.onload</text>
<text text-anchor="start" x="3312.6" y="-250.7" font-family="Times,serif" font-size="14.00">&#45;bgReady : variable = false</text>
<text text-anchor="start" x="3312.6" y="-233.9" font-family="Times,serif" font-size="14.00">&#45;canvas : variable = canvas</text>
<text text-anchor="start" x="3312.6" y="-217.1" font-family="Times,serif" font-size="14.00">&#45;canvas.height : number = 480</text>
<text text-anchor="start" x="3312.6" y="-200.3" font-family="Times,serif" font-size="14.00">&#45;canvas.width : number = 512</text>
<text text-anchor="start" x="3312.6" y="-183.5" font-family="Times,serif" font-size="14.00">&#45;ctx : variable = 2d</text>
<polyline fill="none" stroke="black" points="3304.6,-175.3 3491.4,-175.3 "/>
<text text-anchor="start" x="3312.6" y="-158.7" font-family="Times,serif" font-size="14.00">&#45;undefined()</text>
</g>
<!-- 6 -->
<g id="node2" class="node"><title>6</title>
<polygon fill="lightblue" stroke="black" points="3060.14,-158.9 3060.14,-300.5 3297.86,-300.5 3297.86,-158.9 3060.14,-158.9"/>
<text text-anchor="middle" x="3179" y="-283.9" font-family="Times,serif" font-size="14.00">«FUNCTION»</text>
<text text-anchor="middle" x="3179" y="-267.1" font-family="Times,serif" font-size="14.00"> bgImage.onload()</text>
<polyline fill="none" stroke="black" points="3060.14,-258.9 3297.86,-258.9 "/>
<text text-anchor="start" x="3068.14" y="-242.3" font-family="Times,serif" font-size="14.00">&#45;bgImage.src : string = background.png</text>
<text text-anchor="start" x="3068.14" y="-225.5" font-family="Times,serif" font-size="14.00">&#45;bgReady : boolean = true</text>
<text text-anchor="start" x="3068.14" y="-208.7" font-family="Times,serif" font-size="14.00">&#45;heroImage.onload</text>
<text text-anchor="start" x="3068.14" y="-191.9" font-family="Times,serif" font-size="14.00">&#45;heroReady : variable = false</text>
<polyline fill="none" stroke="black" points="3060.14,-183.7 3297.86,-183.7 "/>
<text text-anchor="start" x="3068.14" y="-167.1" font-family="Times,serif" font-size="14.00">&#45;undefined()</text>
</g>
<!-- 7 -->
<g id="node3" class="node"><title>7</title>
<polygon fill="lightblue" stroke="black" points="2845.31,-158.9 2845.31,-300.5 3052.69,-300.5 3052.69,-158.9 2845.31,-158.9"/>
<text text-anchor="middle" x="2949" y="-283.9" font-family="Times,serif" font-size="14.00">«FUNCTION»</text>
<text text-anchor="middle" x="2949" y="-267.1" font-family="Times,serif" font-size="14.00"> heroImage.onload()</text>
<polyline fill="none" stroke="black" points="2845.31,-258.9 3052.69,-258.9 "/>
<text text-anchor="start" x="2853.31" y="-242.3" font-family="Times,serif" font-size="14.00">&#45;heroImage.src : string = hero.png</text>
<text text-anchor="start" x="2853.31" y="-225.5" font-family="Times,serif" font-size="14.00">&#45;heroReady : boolean = true</text>
<text text-anchor="start" x="2853.31" y="-208.7" font-family="Times,serif" font-size="14.00">&#45;monsterImage.onload</text>
<text text-anchor="start" x="2853.31" y="-191.9" font-family="Times,serif" font-size="14.00">&#45;monsterReady : variable = false</text>
<polyline fill="none" stroke="black" points="2845.31,-183.7 3052.69,-183.7 "/>
<text text-anchor="start" x="2853.31" y="-167.1" font-family="Times,serif" font-size="14.00">&#45;undefined()</text>
</g>
<!-- 8 -->
<g id="node4" class="node"><title>8</title>
<polygon fill="lightblue" stroke="black" points="2590.08,-154.5 2590.08,-304.9 2837.92,-304.9 2837.92,-154.5 2590.08,-154.5"/>
<text text-anchor="middle" x="2714" y="-288.3" font-family="Times,serif" font-size="14.00">«FUNCTION»</text>
<text text-anchor="middle" x="2714" y="-271.5" font-family="Times,serif" font-size="14.00"> monsterImage.onload()</text>
<polyline fill="none" stroke="black" points="2590.08,-263.3 2837.92,-263.3 "/>
<text text-anchor="start" x="2598.08" y="-246.7" font-family="Times,serif" font-size="14.00">&#45;hero : object</text>
<text text-anchor="start" x="2598.08" y="-229.9" font-family="Times,serif" font-size="14.00">&#45;keysDown : object</text>
<text text-anchor="start" x="2598.08" y="-213.1" font-family="Times,serif" font-size="14.00">&#45;monster : object</text>
<text text-anchor="start" x="2598.08" y="-196.3" font-family="Times,serif" font-size="14.00">&#45;monsterImage.src : string = monster.png</text>
<text text-anchor="start" x="2598.08" y="-179.5" font-family="Times,serif" font-size="14.00">&#45;monsterReady : boolean = true</text>
<text text-anchor="start" x="2598.08" y="-162.7" font-family="Times,serif" font-size="14.00">&#45;monstersCaught : variable = 0</text>
</g>
<!-- 9 -->
<g id="node5" class="node"><title>9</title>
<polygon fill="lightblue" stroke="black" points="2391.28,-196.5 2391.28,-262.9 2582.72,-262.9 2582.72,-196.5 2391.28,-196.5"/>
<text text-anchor="middle" x="2487" y="-246.3" font-family="Times,serif" font-size="14.00">«FUNCTION»</text>
<text text-anchor="middle" x="2487" y="-229.5" font-family="Times,serif" font-size="14.00"> (e)</text>
<polyline fill="none" stroke="black" points="2391.28,-221.3 2582.72,-221.3 "/>
<text text-anchor="start" x="2399.28" y="-204.7" font-family="Times,serif" font-size="14.00">&#45;keysDown.[?] : boolean = true</text>
</g>
<!-- 10 -->
<g id="node6" class="node"><title>10</title>
<polygon fill="lightblue" stroke="black" points="2273.96,-196.5 2273.96,-262.9 2384.04,-262.9 2384.04,-196.5 2273.96,-196.5"/>
<text text-anchor="middle" x="2329" y="-246.3" font-family="Times,serif" font-size="14.00">«FUNCTION»</text>
<text text-anchor="middle" x="2329" y="-229.5" font-family="Times,serif" font-size="14.00"> (e)</text>
<polyline fill="none" stroke="black" points="2273.96,-221.3 2384.04,-221.3 "/>
<text text-anchor="start" x="2281.96" y="-204.7" font-family="Times,serif" font-size="14.00">&#45;reset()</text>
</g>
<!-- 11 -->
<g id="node7" class="node"><title>11</title>
<polygon fill="lightblue" stroke="black" points="2084.61,-158.9 2084.61,-300.5 2267.39,-300.5 2267.39,-158.9 2084.61,-158.9"/>
<text text-anchor="middle" x="2176" y="-283.9" font-family="Times,serif" font-size="14.00">«FUNCTION»</text>
<text text-anchor="middle" x="2176" y="-267.1" font-family="Times,serif" font-size="14.00"> reset()</text>
<polyline fill="none" stroke="black" points="2084.61,-258.9 2267.39,-258.9 "/>
<text text-anchor="start" x="2092.61" y="-242.3" font-family="Times,serif" font-size="14.00">&#45;hero.x : binaryexpression</text>
<text text-anchor="start" x="2092.61" y="-225.5" font-family="Times,serif" font-size="14.00">&#45;hero.y : binaryexpression</text>
<text text-anchor="start" x="2092.61" y="-208.7" font-family="Times,serif" font-size="14.00">&#45;monster.x : binaryexpression</text>
<text text-anchor="start" x="2092.61" y="-191.9" font-family="Times,serif" font-size="14.00">&#45;monster.y : binaryexpression</text>
<polyline fill="none" stroke="black" points="2084.61,-183.7 2267.39,-183.7 "/>
<text text-anchor="start" x="2092.61" y="-167.1" font-family="Times,serif" font-size="14.00">&#45;update(modifier)</text>
</g>
<!-- 12 -->
<g id="node8" class="node"><title>12</title>
<polygon fill="lightblue" stroke="black" points="1914.72,-175.7 1914.72,-283.7 2077.28,-283.7 2077.28,-175.7 1914.72,-175.7"/>
<text text-anchor="middle" x="1996" y="-267.1" font-family="Times,serif" font-size="14.00">«FUNCTION»</text>
<text text-anchor="middle" x="1996" y="-250.3" font-family="Times,serif" font-size="14.00"> update(modifier)</text>
<polyline fill="none" stroke="black" points="1914.72,-242.1 2077.28,-242.1 "/>
<text text-anchor="start" x="1922.72" y="-225.5" font-family="Times,serif" font-size="14.00">&#45;hero.x : binaryexpression</text>
<text text-anchor="start" x="1922.72" y="-208.7" font-family="Times,serif" font-size="14.00">&#45;hero.y : binaryexpression</text>
<polyline fill="none" stroke="black" points="1914.72,-200.5 2077.28,-200.5 "/>
<text text-anchor="start" x="1922.72" y="-183.9" font-family="Times,serif" font-size="14.00">&#45;render()</text>
</g>
<!-- 13 -->
<g id="node9" class="node"><title>13</title>
<polygon fill="khaki" stroke="black" points="1851.71,-99.9 1851.71,-141.5 2000.29,-141.5 2000.29,-99.9 1851.71,-99.9"/>
<text text-anchor="middle" x="1926" y="-124.9" font-family="Times,serif" font-size="14.00">«BLOCK»</text>
<text text-anchor="middle" x="1926" y="-108.1" font-family="Times,serif" font-size="14.00"> AssignmentExpression</text>
</g>
<!-- 12&#45;&gt;13 -->
<g id="edge6" class="edge"><title>12&#45;&gt;13</title>
<path fill="none" stroke="black" d="M1954.58,-165.385C1948.99,-156.845 1943.63,-148.651 1939.09,-141.713"/>
<polygon fill="black" stroke="black" points="1954.64,-165.471 1961.27,-168.303 1961.21,-175.513 1954.57,-172.682 1954.64,-165.471"/>
</g>
<!-- 14 -->
<g id="node10" class="node"><title>14</title>
<polygon fill="khaki" stroke="black" points="2007.71,-99.9 2007.71,-141.5 2156.29,-141.5 2156.29,-99.9 2007.71,-99.9"/>
<text text-anchor="middle" x="2082" y="-124.9" font-family="Times,serif" font-size="14.00">«BLOCK»</text>
<text text-anchor="middle" x="2082" y="-108.1" font-family="Times,serif" font-size="14.00"> AssignmentExpression</text>
</g>
<!-- 12&#45;&gt;14 -->
<g id="edge7" class="edge"><title>12&#45;&gt;14</title>
<path fill="none" stroke="black" d="M2046.44,-165.942C2053.47,-157.202 2060.22,-148.802 2065.91,-141.713"/>
<polygon fill="black" stroke="black" points="2046.27,-166.16 2045.62,-173.343 2038.75,-175.513 2039.39,-168.331 2046.27,-166.16"/>
</g>
<!-- 15 -->
<g id="node11" class="node"><title>15</title>
<polygon fill="khaki" stroke="black" points="2163.71,-99.9 2163.71,-141.5 2312.29,-141.5 2312.29,-99.9 2163.71,-99.9"/>
<text text-anchor="middle" x="2238" y="-124.9" font-family="Times,serif" font-size="14.00">«BLOCK»</text>
<text text-anchor="middle" x="2238" y="-108.1" font-family="Times,serif" font-size="14.00"> AssignmentExpression</text>
</g>
<!-- 12&#45;&gt;15 -->
<g id="edge8" class="edge"><title>12&#45;&gt;15</title>
<path fill="none" stroke="black" d="M2052.23,-167.781C2061.22,-160.795 2070.9,-154.556 2081,-150 2113.17,-135.483 2125.27,-148.24 2160,-142 2161.1,-141.802 2162.21,-141.597 2163.33,-141.384"/>
<polygon fill="black" stroke="black" points="2052.02,-167.961 2049.94,-174.868 2042.77,-175.611 2044.84,-168.704 2052.02,-167.961"/>
</g>
<!-- 16 -->
<g id="node12" class="node"><title>16</title>
<polygon fill="khaki" stroke="black" points="2319.71,-99.9 2319.71,-141.5 2468.29,-141.5 2468.29,-99.9 2319.71,-99.9"/>
<text text-anchor="middle" x="2394" y="-124.9" font-family="Times,serif" font-size="14.00">«BLOCK»</text>
<text text-anchor="middle" x="2394" y="-108.1" font-family="Times,serif" font-size="14.00"> AssignmentExpression</text>
</g>
<!-- 12&#45;&gt;16 -->
<g id="edge9" class="edge"><title>12&#45;&gt;16</title>
<path fill="none" stroke="black" d="M2051.31,-167.653C2060.52,-160.554 2070.51,-154.318 2081,-150 2105.16,-140.055 2290.15,-145.757 2316,-142 2317.11,-141.839 2318.22,-141.668 2319.34,-141.489"/>
<polygon fill="black" stroke="black" points="2051.27,-167.685 2049.19,-174.588 2042.01,-175.319 2044.1,-168.416 2051.27,-167.685"/>
</g>
<!-- 17 -->
<g id="node13" class="node"><title>17</title>
<polygon fill="khaki" stroke="black" points="2474.93,-99.9 2474.93,-141.5 2597.07,-141.5 2597.07,-99.9 2474.93,-99.9"/>
<text text-anchor="middle" x="2536" y="-124.9" font-family="Times,serif" font-size="14.00">«BLOCK»</text>
<text text-anchor="middle" x="2536" y="-108.1" font-family="Times,serif" font-size="14.00"> UpdateExpression</text>
</g>
<!-- 12&#45;&gt;17 -->
<g id="edge10" class="edge"><title>12&#45;&gt;17</title>
<path fill="none" stroke="black" d="M2050.89,-167.803C2060.21,-160.606 2070.34,-154.303 2081,-150 2121.19,-133.774 2428.22,-148.974 2471,-142 2472.28,-141.791 2473.58,-141.562 2474.88,-141.316"/>
<polygon fill="black" stroke="black" points="2050.74,-167.929 2048.67,-174.836 2041.5,-175.58 2043.57,-168.673 2050.74,-167.929"/>
</g>
<!-- 18 -->
<g id="node14" class="node"><title>18</title>
<polygon fill="lightblue" stroke="black" points="1668.15,-158.9 1668.15,-300.5 1907.85,-300.5 1907.85,-158.9 1668.15,-158.9"/>
<text text-anchor="middle" x="1788" y="-283.9" font-family="Times,serif" font-size="14.00">«FUNCTION»</text>
<text text-anchor="middle" x="1788" y="-267.1" font-family="Times,serif" font-size="14.00"> render()</text>
<polyline fill="none" stroke="black" points="1668.15,-258.9 1907.85,-258.9 "/>
<text text-anchor="start" x="1676.15" y="-242.3" font-family="Times,serif" font-size="14.00">&#45;ctx.fillStyle : string = rgb250, 250, 250</text>
<text text-anchor="start" x="1676.15" y="-225.5" font-family="Times,serif" font-size="14.00">&#45;ctx.font : string = 22px Verdana</text>
<text text-anchor="start" x="1676.15" y="-208.7" font-family="Times,serif" font-size="14.00">&#45;ctx.textAlign : string = left</text>
<text text-anchor="start" x="1676.15" y="-191.9" font-family="Times,serif" font-size="14.00">&#45;ctx.textBaseline : string = top</text>
<polyline fill="none" stroke="black" points="1668.15,-183.7 1907.85,-183.7 "/>
<text text-anchor="start" x="1676.15" y="-167.1" font-family="Times,serif" font-size="14.00">&#45;main()</text>
</g>
<!-- 19 -->
<g id="node15" class="node"><title>19</title>
<polygon fill="khaki" stroke="black" points="1515.48,-99.9 1515.48,-141.5 1620.52,-141.5 1620.52,-99.9 1515.48,-99.9"/>
<text text-anchor="middle" x="1568" y="-124.9" font-family="Times,serif" font-size="14.00">«BLOCK»</text>
<text text-anchor="middle" x="1568" y="-108.1" font-family="Times,serif" font-size="14.00"> CallExpression</text>
</g>
<!-- 18&#45;&gt;19 -->
<g id="edge11" class="edge"><title>18&#45;&gt;19</title>
<path fill="none" stroke="black" d="M1672.55,-153.636C1669.7,-152.364 1666.84,-151.149 1664,-150 1647.59,-143.372 1642.04,-146.758 1625,-142 1623.58,-141.605 1622.15,-141.192 1620.71,-140.764"/>
<polygon fill="black" stroke="black" points="1672.67,-153.693 1679.8,-152.631 1683.52,-158.807 1676.39,-159.869 1672.67,-153.693"/>
</g>
<!-- 20 -->
<g id="node16" class="node"><title>20</title>
<polygon fill="khaki" stroke="black" points="1627.48,-99.9 1627.48,-141.5 1732.52,-141.5 1732.52,-99.9 1627.48,-99.9"/>
<text text-anchor="middle" x="1680" y="-124.9" font-family="Times,serif" font-size="14.00">«BLOCK»</text>
<text text-anchor="middle" x="1680" y="-108.1" font-family="Times,serif" font-size="14.00"> CallExpression</text>
</g>
<!-- 18&#45;&gt;20 -->
<g id="edge12" class="edge"><title>18&#45;&gt;20</title>
<path fill="none" stroke="black" d="M1708.94,-150.376C1705.83,-147.295 1702.87,-144.355 1700.1,-141.612"/>
<polygon fill="black" stroke="black" points="1708.95,-150.377 1716.02,-151.759 1717.47,-158.823 1710.39,-157.442 1708.95,-150.377"/>
</g>
<!-- 21 -->
<g id="node17" class="node"><title>21</title>
<polygon fill="khaki" stroke="black" points="1739.48,-99.9 1739.48,-141.5 1844.52,-141.5 1844.52,-99.9 1739.48,-99.9"/>
<text text-anchor="middle" x="1792" y="-124.9" font-family="Times,serif" font-size="14.00">«BLOCK»</text>
<text text-anchor="middle" x="1792" y="-108.1" font-family="Times,serif" font-size="14.00"> CallExpression</text>
</g>
<!-- 18&#45;&gt;21 -->
<g id="edge13" class="edge"><title>18&#45;&gt;21</title>
<path fill="none" stroke="black" d="M1791.07,-146.646C1791.13,-144.907 1791.2,-143.225 1791.26,-141.612"/>
<polygon fill="black" stroke="black" points="1791.06,-146.831 1794.83,-152.977 1790.61,-158.823 1786.84,-152.678 1791.06,-146.831"/>
</g>
<!-- 22 -->
<g id="node18" class="node"><title>22</title>
<polygon fill="lightblue" stroke="black" points="1515.01,-171.3 1515.01,-288.1 1660.99,-288.1 1660.99,-171.3 1515.01,-171.3"/>
<text text-anchor="middle" x="1588" y="-271.5" font-family="Times,serif" font-size="14.00">«FUNCTION»</text>
<text text-anchor="middle" x="1588" y="-254.7" font-family="Times,serif" font-size="14.00"> main()</text>
<polyline fill="none" stroke="black" points="1515.01,-246.5 1660.99,-246.5 "/>
<text text-anchor="start" x="1523.01" y="-229.9" font-family="Times,serif" font-size="14.00">&#45;delta : variable</text>
<text text-anchor="start" x="1523.01" y="-213.1" font-family="Times,serif" font-size="14.00">&#45;now : variable</text>
<text text-anchor="start" x="1523.01" y="-196.3" font-family="Times,serif" font-size="14.00">&#45;then : identifier = now</text>
<text text-anchor="start" x="1523.01" y="-179.5" font-family="Times,serif" font-size="14.00">&#45;then : variable</text>
</g>
<!-- 1 -->
<g id="node19" class="node"><title>1</title>
<polygon fill="lightsalmon" stroke="black" points="1386.96,-369.9 1386.96,-405.9 1483.04,-405.9 1483.04,-369.9 1386.96,-369.9"/>
<text text-anchor="middle" x="1435" y="-383.8" font-family="Times,serif" font-size="14.00">«GLOBAL»</text>
</g>
<!-- 1&#45;&gt;0 -->
<g id="edge5" class="edge"><title>1&#45;&gt;0</title>
<path fill="none" stroke="black" d="M1498.94,-386.8C1810.03,-386.223 3155.83,-382.637 3290.95,-363.642"/>
<polygon fill="black" stroke="black" points="3292,-366.993 3301,-361.4 3290.48,-360.161 3292,-366.993"/>
</g>
<!-- 2 -->
<g id="node20" class="node"><title>2</title>
<polygon fill="pink" stroke="black" points="1389.29,-211.7 1389.29,-247.7 1466.71,-247.7 1466.71,-211.7 1389.29,-211.7"/>
<text text-anchor="middle" x="1428" y="-225.6" font-family="Times,serif" font-size="14.00">«ROOT»</text>
</g>
<!-- 1&#45;&gt;2 -->
<g id="edge1" class="edge"><title>1&#45;&gt;2</title>
<path fill="none" stroke="black" d="M1433.69,-357.745C1432.25,-325.535 1429.97,-274.719 1428.78,-248.169"/>
<polygon fill="black" stroke="black" points="1433.7,-357.899 1437.96,-363.713 1434.24,-369.887 1429.97,-364.072 1433.7,-357.899"/>
</g>
<!-- 3 -->
<g id="node21" class="node"><title>3</title>
<polygon fill="pink" stroke="black" points="1373.51,-102.7 1373.51,-138.7 1452.49,-138.7 1452.49,-102.7 1373.51,-102.7"/>
<text text-anchor="middle" x="1413" y="-116.6" font-family="Times,serif" font-size="14.00">«HTML»</text>
</g>
<!-- 2&#45;&gt;3 -->
<g id="edge2" class="edge"><title>2&#45;&gt;3</title>
<path fill="none" stroke="black" d="M1423.89,-199.377C1421.17,-179.95 1417.69,-155.135 1415.4,-138.849"/>
<polygon fill="black" stroke="black" points="1423.92,-199.625 1428.72,-205.011 1425.59,-211.509 1420.8,-206.122 1423.92,-199.625"/>
</g>
<!-- 4 -->
<g id="node22" class="node"><title>4</title>
<polygon fill="pink" stroke="black" points="1239.4,-16.5 1239.4,-82.9 1328.6,-82.9 1328.6,-16.5 1239.4,-16.5"/>
<text text-anchor="middle" x="1284" y="-66.3" font-family="Times,serif" font-size="14.00">«HEAD»</text>
<polyline fill="none" stroke="black" points="1239.4,-58.1 1328.6,-58.1 "/>
<text text-anchor="start" x="1247.4" y="-41.5" font-family="Times,serif" font-size="14.00">+meta : meta</text>
<text text-anchor="start" x="1247.4" y="-24.7" font-family="Times,serif" font-size="14.00">+title : title</text>
</g>
<!-- 3&#45;&gt;4 -->
<g id="edge3" class="edge"><title>3&#45;&gt;4</title>
<path fill="none" stroke="black" d="M1362.35,-98.2214C1352.47,-93.6138 1342.3,-88.5675 1333,-83.4 1331.57,-82.6051 1330.13,-81.7819 1328.68,-80.9369"/>
<polygon fill="black" stroke="black" points="1362.39,-98.2421 1369.51,-97.0916 1373.31,-103.22 1366.19,-104.371 1362.39,-98.2421"/>
</g>
<!-- 5 -->
<g id="node23" class="node"><title>5</title>
<polygon fill="pink" stroke="black" points="1335.48,-24.9 1335.48,-74.5 1490.52,-74.5 1490.52,-24.9 1335.48,-24.9"/>
<text text-anchor="middle" x="1413" y="-57.9" font-family="Times,serif" font-size="14.00">«BODY»</text>
<polyline fill="none" stroke="black" points="1335.48,-49.7 1490.52,-49.7 "/>
<text text-anchor="start" x="1343.48" y="-33.1" font-family="Times,serif" font-size="14.00">+script : script = game.js</text>
</g>
<!-- 3&#45;&gt;5 -->
<g id="edge4" class="edge"><title>3&#45;&gt;5</title>
<path fill="none" stroke="black" d="M1413,-90.2542C1413,-85.0256 1413,-79.6386 1413,-74.5878"/>
<polygon fill="black" stroke="black" points="1413,-90.6438 1417,-96.6438 1413,-102.644 1409,-96.6438 1413,-90.6438"/>
</g>
</g>
</svg>
